<svg xmlns="http://www.w3.org/2000/svg" width="685.578" height="646.765" viewBox="0 0 685.578 646.765">
  <g id="Sandy_Bld-02_Single-06_Converted_" data-name="Sandy_Bld-02_Single-06 [Converted]" transform="translate(-348.583 -376.585)">
    <g id="Illustration" transform="translate(348.583 376.585)">
      <g id="Access_control_system">
        <path id="Path_192" data-name="Path 192" d="M1884.584,1131.952h-6.943a63.915,63.915,0,0,0-2.637-9.837l6.01-3.464-11.749-20.316-6.022,3.472a64.85,64.85,0,0,0-7.208-7.2l3.479-6.014-20.354-11.73-3.468,6a64.467,64.467,0,0,0-9.856-2.633V1073.3h-23.5v6.932a64.142,64.142,0,0,0-9.856,2.633l-3.468-6-20.354,11.73,3.479,6.014a64.841,64.841,0,0,0-7.208,7.2l-6.021-3.472-11.749,20.316,6.01,3.464a64.35,64.35,0,0,0-2.637,9.837h-6.943v23.459h6.943a63.916,63.916,0,0,0,2.637,9.837l-6.01,3.464,11.749,20.316,6.021-3.472a64.855,64.855,0,0,0,7.208,7.2l-3.479,6.014,20.354,11.73,3.468-6a64.006,64.006,0,0,0,9.856,2.629v6.932h23.5v-6.932a64.541,64.541,0,0,0,9.856-2.629l3.468,6,20.354-11.73-3.479-6.014a64.812,64.812,0,0,0,7.208-7.2l6.022,3.472,11.749-20.316-6.01-3.464a64.352,64.352,0,0,0,2.637-9.837h6.943v-23.459Zm-22.1,30.671A48.716,48.716,0,0,1,1833.056,1192c-43.012,15.349-82.753-24.317-67.375-67.254a48.716,48.716,0,0,1,29.428-29.375C1838.122,1080.021,1877.863,1119.686,1862.484,1162.623Z" transform="translate(-1216.603 -810.104)" fill="#f5f6fa"/>
        <g id="Group_99" data-name="Group 99" transform="translate(220.194 47.381)">
          <g id="Group_97" data-name="Group 97">
            <g id="Group_96" data-name="Group 96">
              <path id="Path_193" data-name="Path 193" d="M1267.9,1119.15H992.09l144.3-521.51H1412.2Z" transform="translate(-969.188 -561.514)" fill="#eac4d2"/>
              <path id="Path_194" data-name="Path 194" d="M1211.468,1090.819H954.13c-7.729,0-14.238-2.962-18.329-8.341-4.325-5.682-5.459-13.316-3.2-21.487l146.471-529.353c4.522-16.338,21.465-29.628,37.773-29.628h257.338c7.729,0,14.238,2.962,18.329,8.341,4.325,5.682,5.459,13.313,3.2,21.487l-146.471,529.353C1244.719,1077.53,1227.776,1090.819,1211.468,1090.819Zm-94.623-588.054c-15.991,0-32.609,13.044-37.044,29.073L933.33,1061.191c-2.2,7.941-1.107,15.337,3.071,20.83,3.948,5.187,10.241,8.043,17.729,8.043h257.338c15.991,0,32.609-13.044,37.044-29.073l146.471-529.353c2.2-7.941,1.107-15.337-3.071-20.83-3.948-5.187-10.241-8.043-17.729-8.043Z" transform="translate(-931.466 -502.01)" fill="#c1c1c1"/>
            </g>
            <path id="Path_195" data-name="Path 195" d="M1464.421,938.488H1214.77l58.947-213.038h249.651Z" transform="translate(-1107.747 -641.042)" fill="#f5f6fa"/>
          </g>
          <path id="Path_196" data-name="Path 196" d="M1285.661,1825.784h-161.4l12.058-42.484h161.4Z" transform="translate(-1051.429 -1299.272)" fill="#f5f6fa"/>
          <g id="Group_98" data-name="Group 98" transform="translate(103.313 349.293)">
            <path id="Path_197" data-name="Path 197" d="M1521.4,1543.321l2.27-8.371-123.114.688-4.541,16.743,123.114-.684Z" transform="translate(-1323.84 -1494.033)" fill="#f5f6fa"/>
            <path id="Path_198" data-name="Path 198" d="M1633.07,1510.754l-42.71.238,2.146-7.914,42.71-.238Z" transform="translate(-1444.765 -1474.053)" fill="#f5f6fa"/>
            <path id="Path_199" data-name="Path 199" d="M1639.2,1447.524l-31.664.178,2.146-7.914,31.664-.177Z" transform="translate(-1455.455 -1434.71)" fill="#f5f6fa"/>
            <path id="Path_200" data-name="Path 200" d="M1641.59,1479.34l-42.71.238,2.142-7.91,42.714-.238Z" transform="translate(-1450.067 -1454.509)" fill="#f5f6fa"/>
            <path id="Path_201" data-name="Path 201" d="M1302.346,1441.19c-14.321-19.557-46.186-19.38-71.171.4s-33.633,51.663-19.311,71.22,46.186,19.38,71.171-.4S1316.667,1460.747,1302.346,1441.19Zm-66.321,51.255-11.178-15.266,19.5-15.436,11.178,15.266Z" transform="translate(-1204.95 -1426.638)" fill="#f5f6fa"/>
          </g>
        </g>
        <g id="Group_105" data-name="Group 105" transform="translate(48.973)">
          <rect id="Rectangle_30" data-name="Rectangle 30" width="171.744" height="103.055" transform="translate(0 155.895)" fill="#eacfc7"/>
          <g id="Group_101" data-name="Group 101" transform="translate(11.148 186.516)">
            <rect id="Rectangle_31" data-name="Rectangle 31" width="91.117" height="72.437" fill="#f5f6fa"/>
            <g id="Group_100" data-name="Group 100" transform="translate(4.065 13.056)">
              <path id="Path_202" data-name="Path 202" d="M601.1,905.635H518.868a.378.378,0,1,1,0-.755H601.1a.378.378,0,1,1,0,.755Z" transform="translate(-518.49 -904.88)" fill="#b2b2b2"/>
              <path id="Path_203" data-name="Path 203" d="M601.1,934.416H518.868a.378.378,0,0,1,0-.756H601.1a.378.378,0,0,1,0,.756Z" transform="translate(-518.49 -922.788)" fill="#b2b2b2"/>
              <path id="Path_204" data-name="Path 204" d="M601.1,963.2H518.868a.378.378,0,0,1,0-.756H601.1a.378.378,0,0,1,0,.756Z" transform="translate(-518.49 -940.696)" fill="#b2b2b2"/>
              <path id="Path_205" data-name="Path 205" d="M601.1,991.966H518.868a.378.378,0,0,1,0-.756H601.1a.378.378,0,0,1,0,.756Z" transform="translate(-518.49 -958.597)" fill="#b2b2b2"/>
              <path id="Path_206" data-name="Path 206" d="M601.1,1020.746H518.868a.378.378,0,0,1,0-.756H601.1a.378.378,0,0,1,0,.756Z" transform="translate(-518.49 -976.505)" fill="#b2b2b2"/>
            </g>
          </g>
          <path id="Path_207" data-name="Path 207" d="M868.642,394.85l-89.757,80.842V646.9H958.4V475.692Z" transform="translate(-665.232 -387.95)" fill="#f5f6fa"/>
          <path id="Path_208" data-name="Path 208" d="M957.827,457.992a.363.363,0,0,1-.253-.1l-89.542-80.423L778.49,457.894a.378.378,0,1,1-.5-.563l89.8-80.649a.381.381,0,0,1,.506,0l89.8,80.649a.378.378,0,0,1-.249.657Z" transform="translate(-664.657 -376.585)" fill="#eacfc7"/>
          <g id="Group_102" data-name="Group 102" transform="translate(212.411 146.058)">
            <rect id="Rectangle_32" data-name="Rectangle 32" width="53.409" height="79.475" transform="translate(0 17.06)" fill="#eacfc7"/>
            <rect id="Rectangle_33" data-name="Rectangle 33" width="38.721" height="79.475" transform="translate(209.683 79.475) rotate(180)" fill="#eacfc7"/>
          </g>
          <rect id="Rectangle_34" data-name="Rectangle 34" width="69.966" height="68.648" transform="translate(128.414 163.118)" fill="#eacfc7"/>
          <rect id="Rectangle_35" data-name="Rectangle 35" width="149.089" height="19.674" transform="translate(128.414 136.224)" fill="#eacfc7"/>
          <path id="Path_210" data-name="Path 210" d="M968.6,535.508H820.34V496.322l74.152-67.042,74.11,67.042Z" transform="translate(-691.099 -409.374)" fill="#eacfc7"/>
          <g id="Group_103" data-name="Group 103" transform="translate(162.538 59.984)">
            <path id="Path_211" data-name="Path 211" d="M908.858,598.642a.378.378,0,0,1-.378-.378V535.748a.378.378,0,0,1,.755,0v62.517A.378.378,0,0,1,908.858,598.642Z" transform="translate(-908.48 -535.37)" fill="#fff"/>
            <path id="Path_212" data-name="Path 212" d="M1123.058,598.642a.378.378,0,0,1-.378-.378V535.748a.378.378,0,1,1,.755,0v62.517A.378.378,0,0,1,1123.058,598.642Z" transform="translate(-1041.762 -535.37)" fill="#fff"/>
          </g>
          <g id="Group_104" data-name="Group 104" transform="translate(162.538 59.984)">
            <path id="Path_213" data-name="Path 213" d="M908.858,598.642a.378.378,0,0,1-.378-.378V535.748a.378.378,0,0,1,.755,0v62.517A.378.378,0,0,1,908.858,598.642Z" transform="translate(-908.48 -535.37)" fill="#fff"/>
            <path id="Path_214" data-name="Path 214" d="M1123.058,598.642a.378.378,0,0,1-.378-.378V535.748a.378.378,0,1,1,.755,0v62.517A.378.378,0,0,1,1123.058,598.642Z" transform="translate(-1041.762 -535.37)" fill="#fff"/>
          </g>
          <path id="Path_215" data-name="Path 215" d="M910.128,878.738a.378.378,0,0,1-.378-.378V814.578a.378.378,0,1,1,.755,0V878.36A.378.378,0,0,1,910.128,878.738Z" transform="translate(-746.732 -648.884)" fill="#fff"/>
        </g>
        <g id="Group_110" data-name="Group 110" transform="translate(262.241 78.872)">
          <path id="Path_216" data-name="Path 216" d="M1377.35,831.057l-334.58.247,68.051-245.934H1447.1Z" transform="translate(-1042.77 -585.37)" fill="#242424"/>
          <path id="Path_217" data-name="Path 217" d="M1542.233,663.781H1247.76l4.356-15.961h294.473Z" transform="translate(-1170.322 -624.229)" fill="#f5f6fa"/>
          <g id="Group_107" data-name="Group 107" transform="translate(62.528 76.143)">
            <path id="Path_218" data-name="Path 218" d="M1475.552,830.3H1208.29l12.017-43.371h267.262Z" transform="translate(-1208.29 -786.93)" fill="#d391aa"/>
            <g id="Group_106" data-name="Group 106" transform="translate(12.742 8.699)">
              <ellipse id="Ellipse_4" data-name="Ellipse 4" cx="11.163" cy="8.488" rx="11.163" ry="8.488" transform="translate(0 13.998) rotate(-38.83)" fill="#f5f6fa"/>
              <ellipse id="Ellipse_5" data-name="Ellipse 5" cx="11.163" cy="8.488" rx="11.163" ry="8.488" transform="translate(28.728 14.003) rotate(-38.83)" fill="#f5f6fa"/>
              <ellipse id="Ellipse_6" data-name="Ellipse 6" cx="11.163" cy="8.488" rx="11.163" ry="8.488" transform="translate(57.454 14.001) rotate(-38.83)" fill="#f5f6fa"/>
              <ellipse id="Ellipse_7" data-name="Ellipse 7" cx="11.163" cy="8.488" rx="11.163" ry="8.488" transform="translate(86.182 14.002) rotate(-38.83)" fill="#f5f6fa"/>
              <ellipse id="Ellipse_8" data-name="Ellipse 8" cx="11.163" cy="8.488" rx="11.163" ry="8.488" transform="translate(114.906 13.999) rotate(-38.83)" fill="#f5f6fa"/>
              <ellipse id="Ellipse_9" data-name="Ellipse 9" cx="11.163" cy="8.488" rx="11.163" ry="8.488" transform="translate(143.633 14) rotate(-38.83)" fill="#f5f6fa"/>
              <ellipse id="Ellipse_10" data-name="Ellipse 10" cx="11.163" cy="8.488" rx="11.163" ry="8.488" transform="translate(172.361 14.005) rotate(-38.83)" fill="#f5f6fa"/>
            </g>
          </g>
          <g id="Group_109" data-name="Group 109" transform="translate(44.561 141.375)">
            <path id="Path_219" data-name="Path 219" d="M1427.992,1002.978H1160.73l12.017-43.368h267.262Z" transform="translate(-1160.73 -959.61)" fill="#d391aa"/>
            <g id="Group_108" data-name="Group 108" transform="translate(12.742 8.7)">
              <ellipse id="Ellipse_11" data-name="Ellipse 11" cx="11.163" cy="8.488" rx="11.163" ry="8.488" transform="translate(0 13.998) rotate(-38.83)" fill="#f5f6fa"/>
              <ellipse id="Ellipse_12" data-name="Ellipse 12" cx="11.163" cy="8.488" rx="11.163" ry="8.488" transform="translate(28.728 13.999) rotate(-38.83)" fill="#f5f6fa"/>
              <ellipse id="Ellipse_13" data-name="Ellipse 13" cx="11.163" cy="8.488" rx="11.163" ry="8.488" transform="translate(57.451 14) rotate(-38.83)" fill="#f5f6fa"/>
              <ellipse id="Ellipse_14" data-name="Ellipse 14" cx="11.163" cy="8.488" rx="11.163" ry="8.488" transform="translate(86.179 14.001) rotate(-38.83)" fill="#f5f6fa"/>
            </g>
          </g>
        </g>
        <g id="Group_121" data-name="Group 121" transform="translate(0 60.418)">
          <g id="Group_114" data-name="Group 114" transform="translate(47.023)">
            <g id="Group_111" data-name="Group 111" transform="translate(130.804 122.714)">
              <path id="Path_220" data-name="Path 220" d="M1007.335,996.118c-.159,0-.314-.008-.472-.019a7.126,7.126,0,0,1-5.493-3.94,14.611,14.611,0,0,1-1.655-8.371c.533-6.418,4.6-11.341,9.078-10.97a7.126,7.126,0,0,1,5.493,3.94,14.582,14.582,0,0,1,1.655,8.371c-.514,6.192-4.322,10.989-8.606,10.989Zm.978-22.564c-3.895,0-7.366,4.5-7.846,10.294a13.856,13.856,0,0,0,1.556,7.933,6.4,6.4,0,0,0,4.9,3.562c4.076.336,7.767-4.276,8.266-10.279a13.856,13.856,0,0,0-1.556-7.933,6.4,6.4,0,0,0-4.9-3.562c-.14-.011-.28-.019-.416-.019Z" transform="translate(-931.53 -930.701)" fill="#363e44"/>
              <path id="Path_221" data-name="Path 221" d="M893.943,922.02c1.473-17.562.782-27.932-6.211-36.107-9.4-10.989-25.3-9.943-26.957-9.807-1.058.087-16.187.4-24.475,13.146-8.186,12.587-6.577,34.4.521,47.47l-14.034,32.329c-4.409,9.693-2.637,13.649,7.072,18.05l2.2,1a19.323,19.323,0,0,0,25.563-9.584l9.172-20.169c6.4,2.278,12.077,2.7,15.447.472C888.277,954.825,892.209,942.7,893.943,922.02Z" transform="translate(-820.055 -870.482)" fill="#eacfc7"/>
              <path id="Path_222" data-name="Path 222" d="M988.456,995.841a.284.284,0,0,1-.079-.008l-31.26-6.777a.379.379,0,1,1,.159-.74l31.26,6.777a.378.378,0,0,1-.079.748Z" transform="translate(-904.874 -940.351)" fill="#363e44"/>
              <path id="Path_223" data-name="Path 223" d="M943.728,1080.446a.415.415,0,0,1-.147-.03.378.378,0,0,1-.2-.495l3.162-7.472a.378.378,0,1,1,.7.295l-3.162,7.472A.378.378,0,0,1,943.728,1080.446Z" transform="translate(-896.494 -992.555)" fill="#363e44"/>
              <path id="Path_224" data-name="Path 224" d="M936.258,1005.343a.38.38,0,0,1-.359-.261c-.842-2.58-1.341-4.227-1.7-5.428-.178-.586-.325-1.069-.465-1.507a.379.379,0,0,1,.721-.23c.14.442.287.926.465,1.519.363,1.2.858,2.841,1.7,5.413a.38.38,0,0,1-.242.476.424.424,0,0,1-.117.019Z" transform="translate(-890.497 -946.166)" fill="#363e44"/>
              <path id="Path_225" data-name="Path 225" d="M891.535,877.4c-5.663-14.729-34.331-20.713-50.443-11.983-21.79,11.809-27.426,42.106-16.01,58.467,3.831,5.489,10.857,13.275,22.114,13.173,6.573-.06,9.127-8.522,9.7-10.578a11.414,11.414,0,0,1-4-14.109,11.264,11.264,0,0,1,12.7-6.063,10.816,10.816,0,0,1,5.75,4.023c15.012-10.351,24.222-22.439,20.188-32.934Z" transform="translate(-819.316 -861.361)" fill="#242424"/>
            </g>
            <g id="Group_113" data-name="Group 113">
              <path id="Path_226" data-name="Path 226" d="M592.393,593.344c-50.4,5.969-47.625-56.824-47.625-56.824l-49.442,70.268c5.572,27.63,30.252,36.783,30.252,36.783-21,.264-32.9-14.234-38.747-24.706l-13.77,19.572s12.459,48.335,61.674,28.744,79.675,22.16,79.675,22.16l8.179-22.16S642.794,587.371,592.393,593.344Z" transform="translate(-473.06 -536.52)" fill="#242424"/>
              <g id="Group_112" data-name="Group 112" transform="translate(132.07 114.644)">
                <path id="Path_227" data-name="Path 227" d="M827.94,868.143a.393.393,0,0,1-.219-.068.378.378,0,0,1-.091-.525,71.313,71.313,0,0,0,7.642-12.591,16.814,16.814,0,0,0,1.613-6.5,8.307,8.307,0,0,0-2.225-6.014,5.482,5.482,0,0,0-5.923-1.3,4.655,4.655,0,0,0-2.463,2.9,5.77,5.77,0,0,0,.4,4.586,6.413,6.413,0,0,0,6.2,3.117.378.378,0,0,1,.091.748,7.183,7.183,0,0,1-6.947-3.491,6.548,6.548,0,0,1-.457-5.194,5.417,5.417,0,0,1,2.871-3.355,6.246,6.246,0,0,1,6.766,1.451,9.062,9.062,0,0,1,2.448,6.558,17.631,17.631,0,0,1-1.674,6.788c-1.979,4.6-4.9,8.73-7.718,12.731a.373.373,0,0,1-.31.159Z" transform="translate(-824.256 -839.999)" fill="#fff"/>
                <path id="Path_228" data-name="Path 228" d="M823.046,897.491a.376.376,0,0,1-.317-.582l3.8-5.8a.378.378,0,0,1,.631.412l-3.8,5.8a.378.378,0,0,1-.317.17Z" transform="translate(-822.666 -871.708)" fill="#fff"/>
              </g>
              <path id="Path_229" data-name="Path 229" d="M618.436,887.095a.381.381,0,0,1-.253-.1,61.027,61.027,0,0,0-44.754-15.56c-8.949.638-17.732,3.305-26.228,5.886-1.957.593-3.978,1.209-5.972,1.787-9.988,2.905-21.71,5.591-32.93,3.5-10.086-1.878-21.529-8.945-24.351-20.509a.378.378,0,0,1,.733-.181c2.743,11.235,13.909,18.114,23.754,19.946,11.069,2.059,22.681-.608,32.582-3.487,1.987-.578,4.008-1.19,5.961-1.783,8.534-2.591,17.362-5.27,26.395-5.916a61.8,61.8,0,0,1,45.317,15.757.378.378,0,0,1-.257.654Z" transform="translate(-479.829 -738.825)" fill="#363e44"/>
              <path id="Path_230" data-name="Path 230" d="M745.674,921.9a8.421,8.421,0,0,1-4.344-1.182,8.558,8.558,0,0,1-4.027-7.9c.234-2.761,1.915-5.572,4.73-7.914a21.344,21.344,0,0,1,30.977,3.948.379.379,0,0,1-.616.442,20.586,20.586,0,0,0-29.878-3.808c-2.659,2.214-4.242,4.839-4.458,7.4a7.651,7.651,0,0,0,11.741,7.087c1.825-1.164,3.313-3.525,2.618-5.791a3.618,3.618,0,0,0-2.6-2.289,2.7,2.7,0,0,0-2.346.408l.718,1.111a.376.376,0,1,1-.631.408l-1.058-1.632.212-.215a3.362,3.362,0,0,1,3.287-.816,4.335,4.335,0,0,1,3.143,2.8c.8,2.625-.869,5.33-2.935,6.649a8.462,8.462,0,0,1-4.529,1.288Z" transform="translate(-637.467 -762.676)" fill="#363e44"/>
            </g>
          </g>
          <path id="Path_231" data-name="Path 231" d="M428.6,1760.118s-8.016,41.619,12.769,61.108h378.73s44.437-105.911-188.358-97.128L428.6,1760.114Z" transform="translate(-397.424 -1275.149)"/>
          <g id="Group_120" data-name="Group 120" transform="translate(0 129.147)">
            <g id="Group_115" data-name="Group 115" transform="translate(0 99.712)">
              <path id="Path_232" data-name="Path 232" d="M378.014,1394.356c-2.675.574-14.208,27.845-25.779,56.85-13.233,33.172,11.121,69.248,46.892,69.5l11.832.083L459.8,1386.37l-81.79,7.982Z" transform="translate(-348.583 -1294.183)" fill="#eacfc7"/>
              <path id="Path_233" data-name="Path 233" d="M434.874,1246.513H376.49l28.544-57.368a84.477,84.477,0,0,1,75.644-46.805h89.138L516.4,1183.576Z" transform="translate(-365.948 -1142.34)" fill="#ba1654"/>
            </g>
            <g id="Group_116" data-name="Group 116" transform="translate(303.583)">
              <path id="Path_234" data-name="Path 234" d="M1172.088,1224.15c32.987,13.324,63.3,20.981,84.616,36.36,26.395,19.04,36.919,47.546,24.9,60.3-12.6,13.373-62.588,23.138-129.4-7.079,1.553-27.278,3.43-62.267,19.874-89.58Z" transform="translate(-1152.21 -1093.533)" fill="#eacfc7"/>
              <path id="Path_235" data-name="Path 235" d="M1353.84,1045.173c8.054-18.858,28.257-60.99,45.521-92.266,18.129-32.843,49.688-78.7,56.061-74.212,3.626,2.557.62,9.7-8.692,28.257,1.409-.468,5.746-1.039,8.723,1.885a8.77,8.77,0,0,1,2.134,9.546c.465-.2,5.538-2.187,8.979.212a9.671,9.671,0,0,1,4.061,10.309c1.171-.453,5.659-1.692,8.9.71,3.328,2.471,5.009,7.461,2.863,11.212-3.936,6.883-16.021,27.12-20.7,37.686-9.206,20.789-31.978,98.994-53.242,125.528-15.617-24.936-38.982-33.923-54.6-58.864Z" transform="translate(-1277.671 -878.389)" fill="#eacfc7"/>
              <path id="Path_236" data-name="Path 236" d="M1560.017,966.726a.389.389,0,0,1-.234-.079l-4.949-3.876a.378.378,0,1,1,.465-.593l4.949,3.876a.378.378,0,0,1-.234.672Z" transform="translate(-1402.632 -930.464)" fill="#363e44"/>
              <path id="Path_237" data-name="Path 237" d="M1593.3,992.726a.389.389,0,0,1-.234-.079l-4.949-3.876a.378.378,0,1,1,.465-.593l4.949,3.876a.378.378,0,0,1-.234.672Z" transform="translate(-1423.34 -946.642)" fill="#363e44"/>
              <path id="Path_238" data-name="Path 238" d="M1627.467,1018.826a.389.389,0,0,1-.234-.079l-4.949-3.876a.378.378,0,1,1,.465-.593l4.949,3.876a.378.378,0,0,1-.234.672Z" transform="translate(-1444.601 -962.882)" fill="#363e44"/>
              <path id="Path_239" data-name="Path 239" d="M1657.977,1043.126a.389.389,0,0,1-.234-.079l-4.949-3.876a.378.378,0,1,1,.465-.593l4.949,3.876a.378.378,0,0,1-.234.672Z" transform="translate(-1463.586 -978.002)" fill="#363e44"/>
            </g>
            <g id="Group_119" data-name="Group 119" transform="translate(10.539 81.67)">
              <g id="Group_117" data-name="Group 117" transform="translate(0 17.945)">
                <path id="Path_240" data-name="Path 240" d="M535.814,1142.183c95.182-2.248,173.958,33.738,173.958,33.738l-9.112,103.3-40.447.748-24.634,83.044-29.93-.854L585.8,1414.644l-209.317,2.369,39.771-140.952s20.569-131.538,119.559-133.877Z" transform="translate(-376.48 -1142.082)" fill="#ba1654"/>
                <path id="Path_241" data-name="Path 241" d="M1127.07,1467.077a.378.378,0,0,1-.378-.363c-.14-3.377-.212-7.536-.283-11.556s-.14-8.16-.28-11.526a.377.377,0,0,1,.363-.393.391.391,0,0,1,.393.363c.14,3.374.212,7.529.28,11.545s.14,8.171.28,11.537a.378.378,0,0,1-.363.393h-.015Z" transform="translate(-842.937 -1329.473)" fill="#363e44"/>
                <path id="Path_242" data-name="Path 242" d="M500.837,1343.244a.338.338,0,0,1-.106-.015.376.376,0,0,1-.257-.468l11.356-38.868a.378.378,0,0,1,.725.212L501.2,1342.972A.378.378,0,0,1,500.837,1343.244Z" transform="translate(-453.624 -1242.596)" fill="#363e44"/>
              </g>
              <g id="Group_118" data-name="Group 118" transform="translate(92.473)">
                <path id="Path_243" data-name="Path 243" d="M632.987,1112.625a35.653,35.653,0,0,1,31.578-18.046c22.726-.064,106.239,17.68,106.239,17.68l3.789,9.406s-66.306,39.061-113.934,44.686-45.593-38.173-27.668-53.726Z" transform="translate(-621.269 -1094.579)" fill="#d391aa"/>
                <path id="Path_244" data-name="Path 244" d="M734.936,1166.715c-9.607,0-15.878-1.825-19.969-4.163-6.029-3.445-6.857-7.755-6.887-7.937a.378.378,0,0,1,.744-.132c.015.083.854,4.2,6.566,7.442,9.962,5.655,33.073,8.2,86.6-11.794a.379.379,0,0,1,.265.71c-32.016,11.96-53.246,15.877-67.318,15.877Z" transform="translate(-675.282 -1129.13)" fill="#363e44"/>
              </g>
            </g>
          </g>
        </g>
        <g id="Group_122" data-name="Group 122" transform="translate(473.854 407.925)">
          <path id="Path_245" data-name="Path 245" d="M1686.169,1845.018a83.152,83.152,0,0,1-83.229-83.078v-64.462a.378.378,0,0,1,.378-.378h165.7a.378.378,0,0,1,.378.378v64.462a83.152,83.152,0,0,1-83.229,83.078ZM1603.7,1697.855v64.084a82.474,82.474,0,0,0,164.948,0v-64.084H1603.7Zm89.085,103.788h-13.226a.378.378,0,0,1-.378-.378v-34.63a19.372,19.372,0,1,1,13.985,0v34.63a.378.378,0,0,1-.378.378Zm-12.848-.755h12.47v-34.513a.38.38,0,0,1,.246-.355,18.617,18.617,0,1,0-12.965,0,.38.38,0,0,1,.245.355v34.513Z" transform="translate(-1602.94 -1606.179)" fill="#363e44"/>
          <path id="Path_246" data-name="Path 246" d="M1774.927,1530.764a.378.378,0,0,1-.378-.378,73.347,73.347,0,0,0-146.694,0,.378.378,0,1,1-.755,0,74.1,74.1,0,0,1,148.205,0A.378.378,0,0,1,1774.927,1530.764Z" transform="translate(-1617.973 -1456.42)" fill="#363e44"/>
        </g>
      </g>
    </g>
  </g>
</svg>
