<?xml version="1.0" encoding="UTF-8"?>
<svg version="1.1" xmlns="http://www.w3.org/2000/svg" width="512" height="512">
<path d="M0 0 C1.45341293 0.00323273 1.45341293 0.00323273 2.93618774 0.00653076 C68.09434465 0.23884759 130.41161761 25.01985728 177.4375 70.3125 C178.4265332 71.26068604 178.4265332 71.26068604 179.43554688 72.22802734 C188.92380305 81.37247479 197.6637044 90.66984009 205.4375 101.3125 C206.29556152 102.46355017 207.15363451 103.61459177 208.01171875 104.765625 C214.04927396 112.95525981 219.43207302 121.45788276 224.4375 130.3125 C224.8396875 131.01971191 225.241875 131.72692383 225.65625 132.45556641 C240.40980272 158.6604118 249.93880207 187.59789118 254.4375 217.3125 C254.61482666 218.43060059 254.79215332 219.54870117 254.97485352 220.70068359 C256.51916151 231.46204298 256.77729671 242.1019101 256.75317383 252.96435547 C256.75002635 255.91281615 256.77352578 258.86025697 256.79882812 261.80859375 C256.84344438 275.19855903 255.64175057 288.11016733 253.4375 301.3125 C253.15531616 303.01792969 253.15531616 303.01792969 252.86743164 304.7578125 C252.40119865 307.35360846 251.88246002 309.9251671 251.3125 312.5 C251.10786133 313.42594971 250.90322266 314.35189941 250.69238281 315.3059082 C240.35655661 359.75659585 218.04842102 400.49190564 186.4375 433.3125 C185.80537598 433.97185547 185.17325195 434.63121094 184.52197266 435.31054688 C175.37752521 444.79880305 166.08015991 453.5387044 155.4375 461.3125 C154.28644983 462.17056152 153.13540823 463.02863451 151.984375 463.88671875 C143.79474019 469.92427396 135.29211724 475.30707302 126.4375 480.3125 C125.73028809 480.7146875 125.02307617 481.116875 124.29443359 481.53125 C98.1470517 496.25245028 69.12576215 505.95209116 39.4375 510.3125 C38.232146 510.48982666 37.02679199 510.66715332 35.78491211 510.84985352 C24.14888483 512.44514801 12.60675476 512.67203114 0.875 512.625 C-0.09394196 512.62284485 -1.06288391 512.6206897 -2.06118774 512.61846924 C-61.95533082 512.40492088 -120.02502998 491.59402366 -165.5625 452.3125 C-166.30757813 451.67828125 -167.05265625 451.0440625 -167.8203125 450.390625 C-181.32529833 438.57948485 -193.99668743 425.82889772 -204.5625 411.3125 C-205.41899066 410.16255169 -206.27576433 409.01281411 -207.1328125 407.86328125 C-213.17284209 399.67315742 -218.55617614 391.16870382 -223.5625 382.3125 C-223.9646875 381.60528809 -224.366875 380.89807617 -224.78125 380.16943359 C-237.8066741 357.03404164 -246.55551461 331.86287591 -251.875 305.875 C-252.02235596 305.15610596 -252.16971191 304.43721191 -252.3215332 303.6965332 C-255.27265207 288.16987908 -255.96957988 272.76936592 -255.9375 257 C-255.93695618 255.99048279 -255.93641235 254.98096558 -255.93585205 253.94085693 C-255.89508601 237.43126461 -254.98779309 221.51467999 -251.5625 205.3125 C-251.34287598 204.27061523 -251.12325195 203.22873047 -250.89697266 202.15527344 C-240.79935215 155.86200689 -218.44021242 113.44836279 -185.5625 79.3125 C-184.93037598 78.65314453 -184.29825195 77.99378906 -183.64697266 77.31445312 C-174.50252521 67.82619695 -165.20515991 59.0862956 -154.5625 51.3125 C-153.41144983 50.45443848 -152.26040823 49.59636549 -151.109375 48.73828125 C-142.91974019 42.70072604 -134.41711724 37.31792698 -125.5625 32.3125 C-124.85528809 31.9103125 -124.14807617 31.508125 -123.41943359 31.09375 C-97.2720517 16.37254972 -68.25076215 6.67290884 -38.5625 2.3125 C-36.75446899 2.04651001 -36.75446899 2.04651001 -34.90991211 1.77514648 C-23.27388483 0.17985199 -11.73175476 -0.04703114 0 0 Z " fill="#D75E91" transform="translate(255.5625,-0.31250000000000006)"/>
<path d="M0 0 C2.40485526 -0.00735193 4.809707 -0.01594141 7.21455383 -0.02566528 C13.03624579 -0.0454831 18.85782015 -0.05126851 24.67954335 -0.0494774 C29.41873679 -0.04816245 34.15789944 -0.05201094 38.8970871 -0.05940247 C53.84478597 -0.08226828 68.79239005 -0.08782258 83.74010298 -0.07988816 C95.48578177 -0.07431684 107.23124218 -0.09513098 118.97686997 -0.12824863 C131.08327813 -0.16211438 143.18958206 -0.17713803 155.29603839 -0.1725316 C162.07444634 -0.17029989 168.85265253 -0.1753378 175.63101959 -0.20042419 C182.01049703 -0.2228293 188.38952267 -0.22069938 194.76900291 -0.20049667 C197.09602147 -0.19711088 199.42307128 -0.2020693 201.75004768 -0.21648026 C230.289215 -0.38088088 256.03349652 6.87863234 276.92480469 27.41992188 C295.1321125 46.72136073 302.23574683 70.7325219 302.21533203 96.90429688 C302.22204926 98.17132446 302.22876648 99.43835205 302.23568726 100.74377441 C302.25312565 104.17354806 302.25803285 107.60322156 302.25931883 111.03303528 C302.26075272 113.18573003 302.26504515 115.33840027 302.27031326 117.49108887 C302.28873403 125.02858056 302.29699317 132.56600216 302.29541016 140.10351562 C302.29420811 147.08710783 302.31534329 154.07039135 302.34689748 161.05390549 C302.37317844 167.08919069 302.38377267 173.12437569 302.38249934 179.15971756 C302.38199354 182.74717388 302.38746301 186.33435457 302.40885544 189.92175293 C302.43209359 193.92656113 302.42264523 197.93068904 302.41064453 201.93554688 C302.42188354 203.09751587 302.43312256 204.25948486 302.44470215 205.45666504 C302.33129187 220.45840731 297.53766943 234.47048403 287.36230469 245.66992188 C276.52380786 255.7507762 263.10695961 260.99010562 248.42480469 260.79492188 C247.55210937 260.80652344 246.67941406 260.818125 245.78027344 260.83007812 C232.64268194 260.77168883 220.94513683 255.43210261 211.36230469 246.48242188 C206.03579392 240.80398093 201.86887711 234.32613438 197.56884766 227.86425781 C194.4145627 223.17451903 191.16087148 218.55340706 187.92480469 213.91992188 C186.55724987 211.95403151 185.19005733 209.98788908 183.82324219 208.02148438 C181.39715398 204.53271961 178.96489017 201.04844065 176.52636719 197.56835938 C175.53398592 196.14401519 174.54178479 194.71954548 173.54980469 193.29492188 C173.10378906 192.66263672 172.65777344 192.03035156 172.19824219 191.37890625 C169.97195974 188.16981874 168.19549917 185.12029591 166.92480469 181.41992188 C167.66730469 180.69804687 168.40980469 179.97617187 169.17480469 179.23242188 C177.99482826 170.21194322 180.51635576 162.8350937 180.40136719 150.3815918 C180.19107702 144.32917797 179.30483456 139.54864775 175.92480469 134.41992188 C175.05855469 132.87304688 175.05855469 132.87304688 174.17480469 131.29492188 C167.53433522 122.80987756 159.55841633 118.18663478 148.92480469 116.41992188 C137.85059326 115.45209163 128.50558186 118.33560677 119.92480469 125.41992188 C111.49467373 133.62088422 109.45609191 140.87637201 107.92480469 152.41992188 C102.31480469 152.41992188 96.70480469 152.41992188 90.92480469 152.41992188 C90.12042969 148.98585938 90.12042969 148.98585938 89.29980469 145.48242188 C86.69523431 135.33640655 81.82951383 127.29324067 72.92480469 121.41992188 C62.97285908 116.26786615 53.63008797 114.75448665 42.73730469 117.54492188 C33.25479851 120.81213154 25.56335052 127.01478942 20.60449219 135.74414062 C16.58287781 144.92635806 15.99809737 156.49897745 19.10058594 166.03320312 C21.73560932 171.50070641 25.27001647 178.59252777 30.92480469 181.41992188 C29.57659859 185.14253096 27.89675949 188.14630581 25.61621094 191.37695312 C24.95717773 192.31651855 24.29814453 193.25608398 23.61914062 194.22412109 C22.91563477 195.21686035 22.21212891 196.20959961 21.48730469 197.23242188 C20.02468839 199.3141885 18.56244995 201.39622066 17.10058594 203.47851562 C16.38467285 204.4954248 15.66875977 205.51233398 14.93115234 206.56005859 C12.31731433 210.28584327 9.7428859 214.03754013 7.17480469 217.79492188 C5.8777101 219.68087402 4.57898616 221.56569375 3.27978516 223.45019531 C2.32572444 224.83710736 1.37448317 226.22596102 0.42529297 227.61621094 C-10.26053476 243.24502882 -20.55172261 256.16884314 -40.07519531 260.41992188 C-43.73344627 260.82783481 -47.33411815 260.89823782 -51.01269531 260.85742188 C-52.46554932 260.84497437 -52.46554932 260.84497437 -53.94775391 260.83227539 C-61.00558055 260.66513825 -66.80167286 259.82268045 -73.07519531 256.41992188 C-74.07679687 255.91074219 -75.07839844 255.4015625 -76.11035156 254.87695312 C-89.42358225 247.66768198 -97.98542993 237.17924122 -102.56738281 222.65039062 C-104.21760075 215.4021257 -104.22333168 208.32038699 -104.22045898 200.91381836 C-104.2238176 199.6673201 -104.22717621 198.42082184 -104.2306366 197.1365509 C-104.23848753 193.73115661 -104.24181303 190.32582333 -104.24245238 186.92042422 C-104.24316573 184.78603339 -104.2453055 182.65164886 -104.2479496 180.5172596 C-104.25719175 173.05113447 -104.26128624 165.58502714 -104.26049805 158.11889648 C-104.2598988 151.19291834 -104.27042338 144.26701847 -104.28624171 137.3410601 C-104.29938695 131.36962061 -104.30467898 125.39820645 -104.30404264 119.42675263 C-104.30378953 115.87169232 -104.30653555 112.31670152 -104.31722069 108.76165581 C-104.32884714 104.78498002 -104.32411249 100.80847542 -104.31811523 96.83178711 C-104.32373474 95.67752228 -104.32935425 94.52325745 -104.33514404 93.33401489 C-104.23801667 67.79371328 -95.93475726 44.87210881 -78.07519531 26.41992188 C-55.17400952 4.95219331 -30.2345506 -0.0439346 0 0 Z " fill="#E0E3F1" transform="translate(157.0751953125,142.580078125)"/>
<path d="M0 0 C8.12809949 6.97038799 13.01463607 14.38887226 15.1328125 24.9453125 C15.1328125 26.5953125 15.1328125 28.2453125 15.1328125 29.9453125 C20.7428125 29.9453125 26.3528125 29.9453125 32.1328125 29.9453125 C32.1328125 27.3053125 32.1328125 24.6653125 32.1328125 21.9453125 C33.96917174 11.76479462 40.91177059 3.83456797 49.1328125 -2.0546875 C59.11311966 -7.56221486 68.77824083 -8.49938213 79.7578125 -5.4296875 C89.98847255 -2.00343825 97.53030998 4.57670542 102.4453125 14.1953125 C106.61023257 22.98206371 106.87118776 34.40351218 103.96875 43.65625 C101.30604313 49.07724808 97.75391016 56.13476367 92.1328125 58.9453125 C93.4810186 62.66792158 95.1608577 65.67169643 97.44140625 68.90234375 C98.10043945 69.84190918 98.75947266 70.78147461 99.43847656 71.74951172 C100.14198242 72.74225098 100.84548828 73.73499023 101.5703125 74.7578125 C103.0329288 76.83957913 104.49516723 78.92161128 105.95703125 81.00390625 C106.67294434 82.02081543 107.38885742 83.03772461 108.12646484 84.08544922 C110.7403017 87.81123225 113.31483566 91.56286072 115.8828125 95.3203125 C117.17828822 97.20490672 118.4754951 99.0882953 119.7734375 100.97119141 C120.73354207 102.3654812 121.69168856 103.76112031 122.6484375 105.15771484 C124.2191799 107.44627486 125.79997961 109.72760264 127.3828125 112.0078125 C127.85428711 112.69858887 128.32576172 113.38936523 128.81152344 114.10107422 C133.87177695 121.34892512 139.34235282 126.92007135 147.0703125 131.2578125 C148.21371094 131.91394531 149.35710937 132.57007813 150.53515625 133.24609375 C161.95885818 138.6416533 177.65106033 139.09978039 189.6953125 135.3828125 C198.39705374 131.85239177 210.89282888 126.42786028 214.89575195 117.18334961 C216.08559737 114.8201055 216.99654566 113.53935134 219.1328125 111.9453125 C224.24890305 111.04734356 229.28387247 111.28707541 234.4453125 111.5078125 C235.86776231 111.54294871 237.29029503 111.57488374 238.71289062 111.60351562 C242.18792782 111.68041699 245.65984424 111.80106781 249.1328125 111.9453125 C247.49833949 116.17595147 245.47357689 120.00642596 243.1328125 123.8828125 C242.73835938 124.53668945 242.34390625 125.19056641 241.9375 125.86425781 C235.20331202 136.87084336 227.51331369 147.13802347 219.1328125 156.9453125 C218.49601562 157.69425781 217.85921875 158.44320312 217.203125 159.21484375 C205.38578782 172.71051871 192.64729662 185.38089275 178.1328125 195.9453125 C176.98286419 196.80180316 175.83312661 197.65857683 174.68359375 198.515625 C166.49346992 204.55565459 157.98901632 209.93898864 149.1328125 214.9453125 C148.07199463 215.54859375 148.07199463 215.54859375 146.98974609 216.1640625 C120.8423642 230.88526278 91.82107465 240.58490366 62.1328125 244.9453125 C60.9274585 245.12263916 59.72210449 245.29996582 58.48022461 245.48266602 C46.84419733 247.07796051 35.30206726 247.30484364 23.5703125 247.2578125 C22.60137054 247.25565735 21.63242859 247.2535022 20.63412476 247.25128174 C-39.26001832 247.03773338 -97.32971748 226.22683616 -142.8671875 186.9453125 C-143.98480469 185.99398437 -143.98480469 185.99398437 -145.125 185.0234375 C-158.62998583 173.21229735 -171.30137493 160.46171022 -181.8671875 145.9453125 C-182.72367816 144.79536419 -183.58045183 143.64562661 -184.4375 142.49609375 C-188.87961503 136.47004067 -192.99895148 130.29287475 -196.8671875 123.8828125 C-197.24117676 123.26349854 -197.61516602 122.64418457 -198.00048828 122.00610352 C-199.93627678 118.73122279 -201.49844464 115.4881406 -202.8671875 111.9453125 C-198.74216756 111.69612449 -194.62011151 111.51580044 -190.48925781 111.39599609 C-189.08809057 111.34602349 -187.68743661 111.27800767 -186.28808594 111.19091797 C-174.65385891 110.48556184 -174.65385891 110.48556184 -170.2253418 114.10375977 C-168.22106625 116.62962992 -166.54866833 119.19879455 -164.8671875 121.9453125 C-157.66587994 129.74811656 -146.02609764 136.27798672 -135.41357422 137.14599609 C-132.62410458 137.24975971 -129.84598729 137.26732613 -127.0546875 137.2578125 C-126.12076172 137.27392578 -125.18683594 137.29003906 -124.22460938 137.30664062 C-111.16927156 137.31570054 -99.43298624 132.40758966 -89.8046875 123.5078125 C-84.69075374 118.00693487 -80.68832217 111.63259675 -76.52734375 105.40576172 C-73.36199675 100.71453126 -70.10708006 96.08521035 -66.8671875 91.4453125 C-62.08513689 84.57806868 -57.30575794 77.70903878 -52.5546875 70.8203125 C-52.11705078 70.18802734 -51.67941406 69.55574219 -51.22851562 68.90429688 C-48.98791284 65.64881181 -46.85781614 62.35965936 -44.8671875 58.9453125 C-45.4653125 58.68878906 -46.0634375 58.43226563 -46.6796875 58.16796875 C-50.50300206 56.031009 -52.51268756 52.55260787 -54.8671875 48.9453125 C-55.28742188 48.32011719 -55.70765625 47.69492187 -56.140625 47.05078125 C-60.76132109 38.74335956 -59.92201503 27.77131357 -58.27734375 18.6875 C-55.13508699 8.52222697 -47.44996886 1.05887564 -38.26171875 -3.9375 C-25.60599226 -9.84212933 -11.31926344 -8.11162476 0 0 Z " fill="#871155" transform="translate(232.8671875,265.0546875)"/>
<path d="M0 0 C17.94733819 15.28134768 28.37428846 37.70435565 30.48828125 60.984375 C31.04958753 68.82296795 30.29930087 76.30881122 29.11328125 84.046875 C28.98735596 84.86889404 28.86143066 85.69091309 28.73168945 86.5378418 C28.08785715 90.41006188 27.37657436 93.50529964 25.48828125 96.984375 C24.8334375 96.7678125 24.17859375 96.55125 23.50390625 96.328125 C11.99492685 92.81691095 0.9457399 92.51917068 -9.88671875 98.23828125 C-17.93250132 103.22612281 -23.93560512 109.53715578 -26.84375 118.66796875 C-29.03335301 129.53915563 -28.88861707 139.8066417 -23.171875 149.55078125 C-19.6126487 155.06695734 -19.6126487 155.06695734 -14.51171875 158.984375 C-15.85992485 162.70698408 -17.53976395 165.71075893 -19.8203125 168.94140625 C-20.4793457 169.88097168 -21.13837891 170.82053711 -21.81738281 171.78857422 C-22.52088867 172.78131348 -23.22439453 173.77405273 -23.94921875 174.796875 C-25.41183505 176.87864163 -26.87407348 178.96067378 -28.3359375 181.04296875 C-29.05185059 182.05987793 -29.76776367 183.07678711 -30.50537109 184.12451172 C-33.11920911 187.8502964 -35.69363754 191.60199326 -38.26171875 195.359375 C-39.55881334 197.24532715 -40.85753728 199.13014687 -42.15673828 201.01464844 C-43.110799 202.40156048 -44.06204027 203.79041414 -45.01123047 205.18066406 C-55.6970582 220.80948195 -65.98824605 233.73329627 -85.51171875 237.984375 C-89.1699697 238.39228793 -92.77064158 238.46269094 -96.44921875 238.421875 C-97.90207275 238.40942749 -97.90207275 238.40942749 -99.38427734 238.39672852 C-106.44210399 238.22959138 -112.2381963 237.38713358 -118.51171875 233.984375 C-119.51332031 233.47519531 -120.51492187 232.96601563 -121.546875 232.44140625 C-134.86010569 225.23213511 -143.42195337 214.74369435 -148.00390625 200.21484375 C-149.65412418 192.96657882 -149.65985511 185.88484012 -149.65698242 178.47827148 C-149.66034103 177.23177322 -149.66369965 175.98527496 -149.66716003 174.70100403 C-149.67501097 171.29560974 -149.67833647 167.89027645 -149.67897582 164.48487735 C-149.67968917 162.35048652 -149.68182894 160.21610198 -149.68447304 158.08171272 C-149.69371519 150.6155876 -149.69780968 143.14948027 -149.69702148 135.68334961 C-149.69642224 128.75737147 -149.70694682 121.83147159 -149.72276515 114.90551323 C-149.73591039 108.93407373 -149.74120241 102.96265958 -149.74056607 96.99120575 C-149.74031297 93.43614545 -149.74305898 89.88115464 -149.75374413 86.32610893 C-149.76537057 82.34943315 -149.76063593 78.37292855 -149.75463867 74.39624023 C-149.76025818 73.2419754 -149.76587769 72.08771057 -149.77166748 70.89846802 C-149.67454011 45.3581664 -141.3712807 22.43656193 -123.51171875 3.984375 C-87.89775812 -29.40039585 -37.62403111 -30.19284611 0 0 Z " fill="#FEFDFE" transform="translate(202.51171875,165.015625)"/>
<path d="M0 0 C8.12809949 6.97038799 13.01463607 14.38887226 15.1328125 24.9453125 C15.1328125 26.5953125 15.1328125 28.2453125 15.1328125 29.9453125 C20.7428125 29.9453125 26.3528125 29.9453125 32.1328125 29.9453125 C32.1328125 27.3053125 32.1328125 24.6653125 32.1328125 21.9453125 C33.96917174 11.76479462 40.91177059 3.83456797 49.1328125 -2.0546875 C59.11311966 -7.56221486 68.77824083 -8.49938213 79.7578125 -5.4296875 C89.98847255 -2.00343825 97.53030998 4.57670542 102.4453125 14.1953125 C106.61023257 22.98206371 106.87118776 34.40351218 103.96875 43.65625 C101.30604313 49.07724808 97.75391016 56.13476367 92.1328125 58.9453125 C93.4810186 62.66792158 95.1608577 65.67169643 97.44140625 68.90234375 C98.10100342 69.84271484 98.76060059 70.78308594 99.44018555 71.75195312 C100.14312744 72.74388672 100.84606934 73.73582031 101.5703125 74.7578125 C103.02381709 76.82655627 104.47694033 78.89556802 105.9296875 80.96484375 C106.64447266 81.9801416 107.35925781 82.99543945 108.09570312 84.04150391 C111.29763066 88.60570885 114.44724053 93.20520395 117.59350586 97.80786133 C117.99190674 98.38947021 118.39030762 98.9710791 118.80078125 99.5703125 C119.17895996 100.12332031 119.55713867 100.67632812 119.94677734 101.24609375 C121.24534483 103.10653626 122.59019568 104.92954715 123.93359375 106.7578125 C126.1328125 109.9453125 126.1328125 109.9453125 126.1328125 111.9453125 C58.1528125 111.9453125 -9.8271875 111.9453125 -79.8671875 111.9453125 C-78.12189069 107.58207047 -76.17494908 104.34010693 -73.4296875 100.6328125 C-72.52216869 99.38503641 -71.61596725 98.13630136 -70.7109375 96.88671875 C-70.24171875 96.23977051 -69.7725 95.59282227 -69.2890625 94.92626953 C-66.95459598 91.6738895 -64.69070376 88.37400089 -62.4296875 85.0703125 C-61.98004639 84.41361572 -61.53040527 83.75691895 -61.06713867 83.08032227 C-60.14525584 81.7334081 -59.22362752 80.38631971 -58.30224609 79.0390625 C-56.79351289 76.83782127 -55.27840686 74.64107937 -53.76171875 72.4453125 C-53.25632568 71.71296387 -52.75093262 70.98061523 -52.23022461 70.22607422 C-51.25665571 68.81563724 -50.28224261 67.4057825 -49.30688477 65.99658203 C-46.91944139 62.57260049 -46.91944139 62.57260049 -44.8671875 58.9453125 C-45.4653125 58.68878906 -46.0634375 58.43226563 -46.6796875 58.16796875 C-50.50300206 56.031009 -52.51268756 52.55260787 -54.8671875 48.9453125 C-55.28742188 48.32011719 -55.70765625 47.69492187 -56.140625 47.05078125 C-60.76132109 38.74335956 -59.92201503 27.77131357 -58.27734375 18.6875 C-55.13508699 8.52222697 -47.44996886 1.05887564 -38.26171875 -3.9375 C-25.60599226 -9.84212933 -11.31926344 -8.11162476 0 0 Z " fill="#BE2E70" transform="translate(232.8671875,265.0546875)"/>
<path d="M0 0 C4.06362657 3.74168433 6.72691043 7.56311225 9.5 12.3125 C16.72181627 24.2579242 25.73667154 34.84299837 35.29296875 44.984375 C36.92901684 46.91618465 37.98609661 48.69141998 39 51 C38.57589844 51.53625 38.15179688 52.0725 37.71484375 52.625 C24.6204168 70.12260788 20.84639176 89.47853455 20.85473633 110.91015625 C20.85137772 112.16351776 20.8480191 113.41687927 20.84455872 114.70822144 C20.83673404 118.11730161 20.83338405 121.52632085 20.83274293 124.93540573 C20.83202831 127.07128912 20.82988632 129.20716627 20.82724571 131.3430481 C20.81802069 138.81105958 20.81390754 146.27905332 20.81469727 153.74707031 C20.81529835 160.68284705 20.80473313 167.61854609 20.7889536 174.55430317 C20.77584045 180.53338387 20.7705149 186.51243928 20.77115268 192.49153423 C20.77140641 196.05201143 20.76862404 199.61241935 20.75797462 203.17288208 C20.74641481 207.14523306 20.75106352 211.11747874 20.75708008 215.08984375 C20.75146057 216.25377655 20.74584106 217.41770935 20.74005127 218.61691284 C20.78338199 229.9094301 23.05212241 238.14333661 27 249 C16.77 249 6.54 249 -4 249 C-18.09856268 220.60430334 -27.95767243 191.51967461 -32 160 C-32.08692108 159.330755 -32.17384216 158.66151001 -32.26339722 157.97198486 C-32.94785735 152.31834581 -33.18875037 146.73500443 -33.23828125 141.04296875 C-33.25297203 139.64388527 -33.25297203 139.64388527 -33.26795959 138.21653748 C-33.4405989 117.49906896 -33.30428596 97.3599558 -29 77 C-28.78037598 75.95811523 -28.56075195 74.91623047 -28.33447266 73.84277344 C-22.65840396 47.82042875 -13.14407306 23.16061748 0 0 Z " fill="#BF2E70" transform="translate(33,128)"/>
<path d="M0 0 C17.23989209 19.12864484 24.93201758 52.37906148 30 77 C30.21027832 78.00111816 30.42055664 79.00223633 30.63720703 80.03369141 C33.85646899 96.10960997 34.38765939 112.03619255 34.4375 128.375 C34.44376404 129.33384094 34.45002808 130.29268188 34.45648193 131.28057861 C34.51486504 145.40959171 33.30227892 159.06242531 31 173 C30.71805786 174.70687988 30.71805786 174.70687988 30.43041992 176.44824219 C29.96345234 179.0428607 29.44473909 181.61366518 28.875 184.1875 C28.67036133 185.11344971 28.46572266 186.03939941 28.25488281 186.9934082 C23.20730561 208.7012304 14.93840179 229.12319642 5 249 C-5.23 249 -15.46 249 -26 249 C-24.35 244.38 -22.7 239.76 -21 235 C-20.2399179 231.19958948 -19.87148629 228.29970903 -19.85955811 224.50862122 C-19.85384796 223.41709244 -19.84813782 222.32556366 -19.84225464 221.20095825 C-19.84057785 219.41889481 -19.84057785 219.41889481 -19.83886719 217.60083008 C-19.83390228 216.3415419 -19.82893738 215.08225372 -19.82382202 213.7848053 C-19.81072991 210.33359013 -19.80425764 206.88239441 -19.79981136 203.4311583 C-19.79687147 201.26693036 -19.79276465 199.1027076 -19.78830719 196.93848228 C-19.77463181 190.14466116 -19.76496909 183.35085203 -19.7611053 176.5570181 C-19.75664422 168.75845162 -19.73918797 160.96006213 -19.7101047 153.16154939 C-19.68832938 147.10855987 -19.67839243 141.0556195 -19.67706418 135.00259131 C-19.67602608 131.40038367 -19.67033626 127.79834233 -19.65224457 124.19617653 C-19.53072649 98.49324907 -20.74340459 76.61796507 -35.4609375 54.70703125 C-37 52 -37 52 -37 48 C-35.63671875 46.3515625 -35.63671875 46.3515625 -33.6875 44.625 C-21.27535617 32.80391064 -11.27612566 17.51563783 -2.27734375 3.01171875 C-1 1 -1 1 0 0 Z " fill="#BF2E70" transform="translate(478,128)"/>
<path d="M0 0 C0.33 0 0.66 0 1 0 C1.01458252 0.56283691 1.02916504 1.12567383 1.04418945 1.70556641 C1.85211819 29.72327873 8.47086043 52.29411432 28.85229492 72.39160156 C46.07842927 88.62253639 69.01391886 96.65519531 92.5090332 96.48144531 C101.26580285 96.19100519 109.58090231 94.31095857 118 92 C118.66950684 91.83209961 119.33901367 91.66419922 120.02880859 91.49121094 C121.70321265 91.05611281 123.35480864 90.53505583 125 90 C125.33 89.34 125.66 88.68 126 88 C126.48210937 88.63808594 126.96421875 89.27617187 127.4609375 89.93359375 C128.09257812 90.75988281 128.72421875 91.58617187 129.375 92.4375 C130.00148437 93.26121094 130.62796875 94.08492188 131.2734375 94.93359375 C132.83753904 97.08528092 132.83753904 97.08528092 135 98 C133.6517939 101.72260908 131.9719548 104.72638393 129.69140625 107.95703125 C128.70285645 109.36637939 128.70285645 109.36637939 127.69433594 110.80419922 C126.99083008 111.79693848 126.28732422 112.78967773 125.5625 113.8125 C124.0998837 115.89426663 122.63764527 117.97629878 121.17578125 120.05859375 C120.45986816 121.07550293 119.74395508 122.09241211 119.00634766 123.14013672 C116.39250964 126.8659214 113.81808121 130.61761826 111.25 134.375 C109.95290541 136.26095215 108.65418147 138.14577187 107.35498047 140.03027344 C106.40091975 141.41718548 105.44967848 142.80603914 104.50048828 144.19628906 C93.81466055 159.82510695 83.5234727 172.74892127 64 177 C60.34174905 177.40791293 56.74107717 177.47831594 53.0625 177.4375 C51.609646 177.42505249 51.609646 177.42505249 50.12744141 177.41235352 C43.06961476 177.24521638 37.27352245 176.40275858 31 173 C29.99839844 172.49082031 28.99679688 171.98164063 27.96484375 171.45703125 C14.65161306 164.24776011 6.08976538 153.75931935 1.5078125 139.23046875 C-0.15998564 131.90498614 -0.1361329 124.75728429 -0.11352539 117.27172852 C-0.11367142 116.00274216 -0.11381744 114.7337558 -0.1139679 113.42631531 C-0.11425363 109.96401599 -0.10839309 106.50175164 -0.10139394 103.03946042 C-0.09512313 99.41465004 -0.09455366 95.78983877 -0.09336853 92.1650238 C-0.09026618 85.30871796 -0.08206761 78.45242815 -0.07201904 71.59612936 C-0.06082381 63.78716982 -0.05533887 55.9782095 -0.05032361 48.16924393 C-0.03988404 32.11281992 -0.02230589 16.05641201 0 0 Z " fill="#E6E9F4" transform="translate(53,226)"/>
<path d="M0 0 C11.22 0 22.44 0 34 0 C34 9.57 34 19.14 34 29 C43.57 29 53.14 29 63 29 C63 40.22 63 51.44 63 63 C53.43 63 43.86 63 34 63 C34 72.9 34 82.8 34 93 C22.78 93 11.56 93 0 93 C0 83.1 0 73.2 0 63 C-9.57 63 -19.14 63 -29 63 C-29 51.78 -29 40.56 -29 29 C-19.43 29 -9.86 29 0 29 C0 19.43 0 9.86 0 0 Z " fill="#848898" transform="translate(126,187)"/>
<path d="M0 0 C32.34 0 64.68 0 98 0 C98 49.83 98 99.66 98 151 C95.36 151 92.72 151 90 151 C89.78085938 150.02160156 89.56171875 149.04320312 89.3359375 148.03515625 C86.46594125 135.89810948 82.17008698 127.69628204 72 120 C71.34 119.67 70.68 119.34 70 119 C70.20496094 118.02160156 70.40992188 117.04320312 70.62109375 116.03515625 C76.18679938 89.1313809 74.8879345 63.99321633 60 40 C57.81500896 36.85846843 55.47213782 33.91857354 53 31 C52.22076172 30.00419922 52.22076172 30.00419922 51.42578125 28.98828125 C38.34559498 12.86766427 19.62318908 5.39356655 0 1 C0 0.67 0 0.34 0 0 Z " fill="#E6E9F4" transform="translate(158,144)"/>
<path d="M0 0 C6.88332844 5.78199589 13.74540064 13.77244275 14.77124023 23.08178711 C15.29092171 34.183149 15.06202045 42.68820089 8.5625 52.1875 C7.840625 53.280625 7.11875 54.37375 6.375 55.5 C-2.66405291 64.13731723 -11.93644422 67.61823613 -24.37329102 67.55102539 C-34.48837127 67.28879552 -42.25106216 63.19496525 -49.4375 56.1875 C-56.59770368 47.35449765 -59.89876467 38.34987919 -59.2578125 27.0078125 C-58.08247782 16.81358312 -54.04962856 8.84167021 -46.5625 1.7890625 C-32.70109851 -8.65794965 -14.57222821 -10.39281285 0 0 Z " fill="#464651" transform="translate(323.4375,264.8125)"/>
<path d="M0 0 C7.71357759 6.61490778 13.11098073 13.66847516 14.38671875 24.00195312 C15.14252543 34.63169581 14.30748144 42.91094665 8.1328125 51.9453125 C7.44832031 52.97205078 7.44832031 52.97205078 6.75 54.01953125 C1.44988674 61.00053757 -6.47383206 64.98983926 -14.8671875 66.9453125 C-27.83536236 68.08217594 -37.64155322 66.33841534 -47.828125 57.93359375 C-54.55656411 51.37272113 -59.18557984 42.94399681 -59.33618164 33.48828125 C-59.32578857 32.73160156 -59.31539551 31.97492188 -59.3046875 31.1953125 C-59.29493896 30.40253906 -59.28519043 29.60976563 -59.27514648 28.79296875 C-58.95428477 18.1251325 -55.83286707 10.89067367 -48.36328125 3.17578125 C-34.42830541 -9.27628636 -15.5471513 -11.14141905 0 0 Z " fill="#616679" transform="translate(232.8671875,265.0546875)"/>
<path d="M0 0 C4.80040969 2.62663927 8.23031875 5.71253184 10.3125 10.8125 C11.07855909 16.62920447 11.11151204 22.35152099 7.6953125 27.30859375 C3.62468907 31.7356842 -0.6395429 34.09323167 -6.6875 34.4375 C-12.01522926 34.13422926 -15.74615973 32.37242025 -19.6875 28.8125 C-23.86554412 23.69439596 -24.3786218 19.24241478 -24.1328125 12.6875 C-23.33428633 7.53210298 -21.03945959 4.72489432 -17.078125 1.50390625 C-11.41006697 -2.25313222 -6.3082142 -2.03145881 0 0 Z " fill="#D76092" transform="translate(375.6875,251.1875)"/>
<path d="M0 0 C4.87746898 2.41193521 7.90489231 6.41792943 9.83984375 11.37890625 C10.87303903 16.67088207 10.42121415 21.02831729 7.77734375 25.75390625 C5.04954417 29.50748005 2.32675306 32.02357342 -2.16015625 33.37890625 C-8.85626236 34.42986461 -14.02966152 33.81961716 -19.5703125 29.80859375 C-24.06606644 25.76572902 -24.91705618 21.42789254 -25.59765625 15.69140625 C-25.53730569 10.320206 -22.68821855 6.25900948 -19.16015625 2.37890625 C-13.50241294 -1.81481333 -6.67796563 -1.92006607 0 0 Z " fill="#BF3071" transform="translate(411.16015625,216.62109375)"/>
<path d="M0 0 C4.09954515 2.3695371 7.01849095 4.96111025 8.75 9.4375 C9.60943195 15.1036664 9.58287204 19.77175593 7 24.9375 C6.2575 25.7625 5.515 26.5875 4.75 27.4375 C4.13125 28.18 3.5125 28.9225 2.875 29.6875 C-1.64936477 33.41344746 -6.53858178 33.94744806 -12.25 33.4375 C-17.45796865 31.45847191 -21.39585957 28.41320089 -24.3671875 23.64453125 C-26.1730798 19.12980051 -25.76720175 14.20086428 -25.25 9.4375 C-23.09062362 4.95879344 -20.32047061 2.25551812 -16.25 -0.5625 C-10.75011677 -2.39579441 -5.3413828 -2.37169559 0 0 Z " fill="#B896E4" transform="translate(377.25,182.5625)"/>
<path d="M0 0 C5.19429187 2.72728614 7.97630225 6.86640674 9.79296875 12.31640625 C10.16120363 17.93198814 10.03188281 21.51027571 6.79296875 26.31640625 C2.07569732 31.07828545 -1.56187658 33.43588424 -8.39453125 33.75390625 C-13.66060449 33.6981068 -16.6645529 32.54107481 -20.61328125 29.0859375 C-24.52334551 24.74461615 -25.75265694 19.99196802 -25.48828125 14.296875 C-24.7794861 9.30577579 -22.93922907 5.67942469 -19.14453125 2.44140625 C-13.50345832 -1.63936991 -6.71239455 -2.07906026 0 0 Z " fill="#9866D8" transform="translate(342.20703125,216.68359375)"/>
</svg>
