<svg xmlns="http://www.w3.org/2000/svg" width="347.036" height="162.576" viewBox="0 0 347.036 162.576">
  <g id="Group_2" data-name="Group 2" transform="translate(-720.131 -105.686)">
    <g id="Group_1" data-name="Group 1" transform="translate(720.134 105.686)">
      <path id="cube-fill-svgrepo-com" d="M77.216,79.454,147.6,39.483a17.522,17.522,0,0,0-4.11-2.914L90.814,6.535A27.613,27.613,0,0,0,77.216,2.5a27.612,27.612,0,0,0-13.6,4.035L10.946,36.569a17.492,17.492,0,0,0-4.109,2.914Z" transform="translate(-1.382 -2.5)" fill="#d67499"/>
      <path id="cube-fill-svgrepo-com-2" data-name="cube-fill-svgrepo-com" d="M74.964,141.285V64.629L4.809,24.583a24.983,24.983,0,0,0-.6,5.678v58.2c0,10.833,3.81,14.868,10.759,18.828l58.5,33.322a6.587,6.587,0,0,0,1.5.674Z" transform="translate(-4.211 21.291)" fill="#e0417d"/>
      <path id="cube-fill-svgrepo-com-3" data-name="cube-fill-svgrepo-com" d="M43.162,141.285a6.586,6.586,0,0,0,1.494-.672l58.5-33.322c6.948-3.96,10.758-8,10.758-18.828v-58.2a25.005,25.005,0,0,0-.6-5.678L43.162,64.629Z" transform="translate(37.752 21.291)" fill="#ba1654"/>
    </g>
    <path id="Path_1" data-name="Path 1" d="M-68.378-65.429q14.017,0,21.777,6.133t7.76,20.9q0,9.011-4.088,15.1a24.465,24.465,0,0,1-10.889,9.011,37.563,37.563,0,0,1-14.977,2.92H-86.4V-65.429Zm-2.677,43.888a38.284,38.284,0,0,0,11.409-1.377A11.211,11.211,0,0,0-53.2-27.966q2.178-3.671,2.178-10.43,0-6.258-1.959-9.929a11.459,11.459,0,0,0-5.791-5.3,24.864,24.864,0,0,0-9.669-1.627h-6.444v33.709Zm45.9-32.958a7.079,7.079,0,0,1-3.588-.96A7.56,7.56,0,0,1-31.415-58a6.43,6.43,0,0,1-1-3.5,6.64,6.64,0,0,1,1-3.546,7.438,7.438,0,0,1,2.67-2.587,7.079,7.079,0,0,1,3.588-.96,7.463,7.463,0,0,1,3.713.96,7.342,7.342,0,0,1,2.712,2.587,6.64,6.64,0,0,1,1,3.546,6.43,6.43,0,0,1-1,3.5,7.46,7.46,0,0,1-2.712,2.545,7.463,7.463,0,0,1-3.713.96Zm-5.423,43.137v-37.3l11.264-1.085v38.381Zm37.63,1.168q-8.177,0-13.433-4.339T-11.64-29.3A22.3,22.3,0,0,1-8.762-41.108a17.511,17.511,0,0,1,7.384-6.884A21.475,21.475,0,0,1,8.051-50.16a24.018,24.018,0,0,1,6.383.793A32.059,32.059,0,0,1,20.9-46.656L16.963-39.23a25.73,25.73,0,0,0-4.524-1.836,14.01,14.01,0,0,0-3.685-.5,7.639,7.639,0,0,0-6.325,3.045Q.041-35.476.041-29.385q0,5.757,2.387,7.968a8.818,8.818,0,0,0,6.241,2.211,12.7,12.7,0,0,0,4.4-.751,31.386,31.386,0,0,0,4.565-2.169l4.02,7.259A26.768,26.768,0,0,1,7.049-10.194ZM61.033-33.556q0,1.669-.334,5.841H36.67q.5,4.672,3.087,6.884a9.19,9.19,0,0,0,6.174,2.211,17.906,17.906,0,0,0,5.173-.751,24.614,24.614,0,0,0,5.34-2.42l3.838,6.842a23.182,23.182,0,0,1-6.925,3.5,27.852,27.852,0,0,1-8.511,1.252,23.52,23.52,0,0,1-9.887-2A15.657,15.657,0,0,1,27.95-18.58q-2.628-4.38-2.628-11.306a24.963,24.963,0,0,1,2.211-10.93,15.483,15.483,0,0,1,6.425-6.967,19.961,19.961,0,0,1,9.971-2.378,18.964,18.964,0,0,1,9.387,2.169,14,14,0,0,1,5.8,5.924,18.433,18.433,0,0,1,1.919,8.511ZM43.908-42.484a6.007,6.007,0,0,0-4.536,1.794A10.5,10.5,0,0,0,37-35.058H49.769v-.25q0-3.838-1.605-5.507A5.634,5.634,0,0,0,43.908-42.484Z" transform="translate(1006.131 229.281)" fill="#fff"/>
  </g>
</svg>
